{"accessors" : [{"bufferView" : 0, "byteOffset" : 0, "componentType" : 5123, "count" : 1782, "type" : "SCALAR", "max" : [725], "min" : [0]}, {"bufferView" : 1, "byteOffset" : 0, "componentType" : 5126, "count" : 726, "type" : "VEC3", "max" : [36.5, 2, 42], "min" : [-37.5, 0, 0], "name" : "POSITION"}, {"bufferView" : 1, "byteOffset" : 12, "componentType" : 5126, "count" : 726, "type" : "VEC2", "max" : [74, 22], "min" : [-37, -24.220008850097656], "name" : "TEXCOORD_0"}, {"bufferView" : 1, "byteOffset" : 20, "componentType" : 5126, "count" : 726, "type" : "VEC3", "max" : [1.0000044107437134, 1.0000044107437134, 1.0000044107437134], "min" : [-1.0000044107437134, -1.0000044107437134, -1.0000044107437134], "name" : "NORMAL"}, {"bufferView" : 0, "byteOffset" : 3564, "componentType" : 5123, "count" : 564, "type" : "SCALAR", "max" : [207], "min" : [0]}, {"bufferView" : 2, "byteOffset" : 0, "componentType" : 5126, "count" : 208, "type" : "VEC3", "max" : [8.399999618530273, 0, 18.87511444091797], "min" : [-9.399999618530273, -0.20000000298023224, 0], "name" : "POSITION"}, {"bufferView" : 2, "byteOffset" : 12, "componentType" : 5126, "count" : 208, "type" : "VEC2", "max" : [10, 28.960174560546875], "min" : [-8.899999618530273, -8.449999809265137], "name" : "TEXCOORD_0"}, {"bufferView" : 2, "byteOffset" : 20, "componentType" : 5126, "count" : 208, "type" : "VEC3", "max" : [1.0000044107437134, 1.0000044107437134, 0.9972082376480103], "min" : [-1.0000044107437134, -1.0000044107437134, -1.0000044107437134], "name" : "NORMAL"}], "asset" : {"generator" : "Aspose.3D 24.6.0", "version" : "2.0"}, "buffers" : [{"uri" : "buffer.bin", "byteLength" : 34592}], "bufferViews" : [{"buffer" : 0, "byteOffset" : 0, "byteLength" : 4692, "target" : 34963}, {"buffer" : 0, "byteOffset" : 4696, "byteLength" : 23232, "byteStride" : 32, "target" : 34962}, {"buffer" : 0, "byteOffset" : 27932, "byteLength" : 6656, "byteStride" : 32, "target" : 34962}], "meshes" : [{"primitives" : [{"attributes" : {"POSITION" : 1, "TEXCOORD_0" : 2, "NORMAL" : 3}, "indices" : 0, "mode" : 4}], "name" : ""}, {"primitives" : [{"attributes" : {"POSITION" : 5, "TEXCOORD_0" : 6, "NORMAL" : 7}, "indices" : 4, "mode" : 4}], "name" : ""}], "nodes" : [{"mesh" : 0, "name" : "Corps1"}, {"mesh" : 1, "name" : "Corps2"}], "scene" : 0, "scenes" : [{"nodes" : [0, 1]}]}